<svg version="1.1" id="Layer_1" xmlns="http://www.w3.org/2000/svg" xmlns:xlink="http://www.w3.org/1999/xlink" x="0px" y="0px" viewBox="0 0 204.92064 250" style="enable-background:new 0 0 204.92064 250;" xml:space="preserve"><defs><style> .svg-style-0 {  fill: rgb(0, 0, 0); }</style></defs><path id="path-01_00000080169738883450272530000002318342189246544027_" d="M204.92064,166.77794
	c0,47.39188-39.81825,85.65816-87.75693,83.10092c-43.31874-2.31079-77.87855-38.17645-78.67255-81.54951
	c-0.4321-23.60405,9.01963-45.04526,24.4825-60.46027L37.74268,72.46593l-13.56141-2.51106
	c-2.09082-0.38715-3.94765-1.57587-5.17446-3.31263L0.25429,40.09459c-0.70637-1,0.1594-2.35242,1.36327-2.12954l2.76344,0.51161
	l18.11681,3.35409l0.439-2.75945l2.89697-18.21188c0.19234-1.20913,1.75637-1.57305,2.46274-0.57304l0.84958,1.20276
	l17.90294,25.34496c1.22681,1.73678,1.7265,3.88415,1.39249,5.98413l-2.14008,13.45512l59.6837,83.74568
	c1.73391-1.62659,3.71638-2.98228,5.88768-4.01369l-5.87576-13.88429c-1.87256,0.85165-3.66672,1.84497-5.36308,2.97659
	l-8.73772-12.26055c2.58921-1.76167,5.34652-3.29037,8.23421-4.57915l-5.86677-13.86311
	c-3.90388,1.72359-7.61839,3.79656-11.09885,6.19079l-8.73114-12.25111c4.37082-3.02785,9.04269-5.64527,13.96322-7.80278
	L73.29758,54.85147L60.60472,49.456c-1.95691-0.83184-3.51136-2.39534-4.33184-4.35703l-12.5416-29.98586
	c-0.47242-1.1295,0.66632-2.26169,1.79309-1.78277l2.57018,1.09244l16.97274,7.21437l2.03622-5.14887l6.33482-16.01815
	c0.24531-0.62027,1.12011-0.62882,1.37749-0.01346l13.13085,31.39464c0.82049,1.9617,0.84205,4.16635,0.06009,6.14373
	L82.9965,50.66459l39.41659,93.14195c13.26646,0.41034,23.74767,12.07755,22.1275,25.76237
	c-1.24052,10.47832-9.69647,18.88274-20.18143,20.06577c-13.87167,1.56516-25.66775-9.29465-25.66775-22.8571
	c0-2.50316,0.41532-4.90807,1.15796-7.16614l-9.86605-13.8437c-4.56978,6.87532-6.97227,15.30998-6.20361,24.32484
	c1.57808,18.50772,16.66457,33.35344,35.19411,34.6506c22.21317,1.55504,40.78564-16.07635,40.78564-37.96526
	c0-20.98724-17.07419-38.06062-38.06071-38.06062c-0.33016,0-0.65632,0.01672-0.98443,0.0251l-6.17148-14.58305
	c2.34235-0.31717,4.72813-0.49568,7.15591-0.49568c30.63476,0,55.29586,26.06978,52.96127,57.19048
	c-1.94809,25.96858-22.91183,46.93428-48.88025,48.88469c-31.12177,2.33746-57.19537-22.3235-57.19537-52.96091
	c0-12.86249,4.59819-24.66989,12.23393-33.87001l-8.95815-12.5697c-12.07195,12.94666-19.18676,30.57295-18.24657,49.83278
	c1.74089,35.66202,31.28426,64.20027,66.98425,64.76645c38.09042,0.60408,69.26906-30.20459,69.26906-68.15952
	c0-37.58826-30.57973-68.16789-68.16816-68.16789c-4.51232,0-8.91981,0.45154-13.18935,1.29215l-5.96528-14.09626
	c6.1543-1.4559,12.56178-2.24971,19.15463-2.24971C167.58769,83.55623,204.92064,120.88926,204.92064,166.77794z" class="svg-style-0"/></svg>