<?xml version="1.0" encoding="UTF-8"?>
<svg id="Layer_1" data-name="Layer 1" xmlns="http://www.w3.org/2000/svg" version="1.1" viewBox="0 0 250 237.66669">
  <defs>
    <style>
      .cls-1 {
        fill: #fff;
        stroke-width: 0px;
      }
    </style>
  </defs>
  <path id="path-01" class="cls-1" d="M220.86807,89.70142c-15.12311,0-27.5829,11.58577-28.99071,26.34576h-19.48789c-.595-10.22759-4.44105-19.5934-10.51919-27.08197h7.2619c1.5386,0,2.78526-1.24757,2.78526-2.78526v-28.05708c14.76158-1.40759,26.34757-13.86783,26.34757-28.99185,0-16.06241-13.06861-29.13102-29.13283-29.13102-16.06331,0-29.13193,13.06861-29.13193,29.13102,0,15.12401,11.58599,27.58403,26.34666,28.99185v25.27182h-9.79761c-8.39409-7.48086-19.44697-12.03865-31.54886-12.03865,10.00897,0,18.52864,9.82095,22.89093,24.58502,14.76543,4.36195,24.58638,12.88207,24.58638,22.89138s-9.82084,18.52898-24.58593,22.89138c-4.36206,14.76543-12.88207,24.58683-22.89138,24.58683,12.10143,0,23.15397-4.55801,31.54795-12.03865h9.79851v25.27182c-14.76067,1.40782-26.34666,13.86783-26.34666,28.99185,0,16.06241,13.06861,29.13102,29.13193,29.13102,16.06422,0,29.13283-13.06861,29.13283-29.13102,0-15.12401-11.58599-27.58426-26.34757-28.99185v-28.05708c0-1.5377-1.24666-2.78526-2.78526-2.78526h-7.26281c6.07871-7.48902,9.92511-16.85574,10.5201-27.08378h19.48777c1.40759,14.76158,13.86761,26.34757,28.99083,26.34757,16.06331,0,29.13193-13.06861,29.13193-29.13283,0-16.06241-13.06861-29.13102-29.13193-29.13102ZM149.63874,42.34742c3.48838-4.5188,8.49088-7.80273,14.26155-9.05256-.95573-.51045-1.86194-1.16914-2.65289-1.96065-4.36648-4.36648-4.36648-11.43572,0-15.78588,4.34993-4.36648,11.41883-4.36648,15.76933,0,4.36637,4.35016,4.36637,11.4194,0,15.78588-.79152.79152-1.69761,1.4502-2.65289,1.96065,5.77101,1.24983,10.77385,4.53421,14.26201,9.05324-4.24317,6.23828-11.39673,10.34523-19.49367,10.34523s-15.25038-4.10717-19.49344-10.34591ZM188.62641,221.75071c-4.24317,6.23828-11.39707,10.34546-19.49423,10.34546-8.09637,0-15.24993-4.10717-19.49299-10.345,3.48849-4.5188,8.49111-7.80318,14.26201-9.05256-.95528-.51045-1.86183-1.16959-2.65278-1.96111-4.36648-4.36648-4.36648-11.43526,0-15.78565,4.35039-4.36603,11.41928-4.36603,15.76922,0,4.36648,4.35039,4.36648,11.41917,0,15.78565-.79095.79152-1.69716,1.45066-2.65289,1.96111,5.77067,1.24938,10.77329,4.53331,14.26167,9.0521ZM212.98296,121.03608c-4.36637-4.36648-4.36637-11.43549,0-15.78588,4.35005-4.36648,11.41883-4.36648,15.76933,0,4.36648,4.35039,4.36648,11.4194,0,15.78588-.7914.79129-1.69716,1.44998-2.65289,1.96043,5.77078,1.24961,10.77351,4.53399,14.26167,9.05278-4.24306,6.23828-11.39662,10.34546-19.49299,10.34546s-15.25049-4.10717-19.49355-10.34614c3.48849-4.51857,8.49088-7.8025,14.26133-9.0521-.95573-.51045-1.86194-1.16914-2.65289-1.96043ZM166.48949,121.6177c-1.62916,5.5465-8.02236,10.45788-17.02766,13.68378.84319-4.28715,1.35965-8.88029,1.50517-13.68378h15.52249ZM108.53175,143.29393c4.28681.84319,8.88018,1.35954,13.68344,1.50506v15.5234c-5.54627-1.6295-10.45732-8.02282-13.68344-17.02845ZM106.69315,137.14019c-1.16529-4.7679-1.89526-10.01906-2.08147-15.52249h17.6035v17.6035c-5.50343-.18609-10.75436-.91595-15.52204-2.08101ZM127.78572,139.22121v-17.6035h17.6035c-.18621,5.50343-.91618,10.75436-2.08135,15.52226-4.76768,1.16529-10.01872,1.89515-15.52215,2.08124ZM127.78572,144.79898c4.80326-.14552,9.39664-.66186,13.68344-1.50506-3.22613,9.00564-8.13717,15.39896-13.68344,17.02845v-15.5234ZM106.69315,100.52468c4.76768-1.16506,10.0186-1.89492,15.52204-2.08101v17.6035h-17.6035c.18621-5.50366.91618-10.75481,2.08147-15.52249ZM143.30775,100.52491c1.16529,4.76768,1.89526,10.01883,2.08147,15.52226h-17.6035v-17.6035c5.50343.18609,10.75436.91595,15.52204,2.08124ZM83.51051,116.04718c1.62927-5.54695,8.02282-10.45834,17.02868-13.68401-.84319,4.28692-1.35976,8.88052-1.50528,13.68401h-15.5234ZM150.967,116.04718c-.14552-4.80349-.66209-9.39686-1.50528-13.68378,9.00541,3.2259,15.39862,8.13728,17.02777,13.68378h-15.52249ZM99.03391,121.6177c.14552,4.80349.66198,9.39709,1.50517,13.68378-9.00586-3.2259-15.39941-8.13706-17.02857-13.68378h15.5234ZM122.21519,92.86589c-4.80326.14552-9.39641.66209-13.68322,1.50506,3.22613-9.00473,8.13706-15.3976,13.68322-17.02664v15.52158ZM141.46893,94.37095c-4.28669-.84319-8.87995-1.35954-13.68322-1.50506v-15.52158c5.54616,1.62904,10.45709,8.02191,13.68322,17.02664ZM102.10907,141.72382c-14.76554-4.36195-24.58683-12.88229-24.58683-22.89138s9.82152-18.52943,24.58729-22.89138c4.36217-14.7643,12.88195-24.58502,22.89093-24.58502-12.10234,0-23.15544,4.55779-31.54965,12.03865h-9.79772v-25.27182c14.76067-1.40782,26.34666-13.86783,26.34666-28.99185,0-16.06241-13.06861-29.13102-29.13193-29.13102s-29.13193,13.06861-29.13193,29.13102c0,15.12401,11.58599,27.58403,26.34666,28.99185v28.05708c0,1.5377,1.24666,2.78526,2.78526,2.78526h7.26202c-6.07826,7.48857-9.92431,16.85438-10.51931,27.08197h-19.48698c-1.40782-14.75999-13.86761-26.34576-28.99162-26.34576-16.06331,0-29.13193,13.06861-29.13193,29.13102,0,16.06422,13.06861,29.13283,29.13193,29.13283,15.12413,0,27.58414-11.58599,28.99173-26.34757h19.48687c.595,10.22804,4.44139,19.59476,10.52021,27.08378h-7.26292c-1.5386,0-2.78526,1.24757-2.78526,2.78526v28.05708c-14.76067,1.40782-26.34666,13.86783-26.34666,28.99185,0,16.06241,13.06861,29.13102,29.13193,29.13102s29.13193-13.06861,29.13193-29.13102c0-15.12401-11.58599-27.58403-26.34666-28.99185v-25.27182h9.79863c8.39409,7.48063,19.44686,12.03865,31.54874,12.03865-10.0092,0-18.52932-9.82141-22.89138-24.58683ZM61.37472,42.34787c3.48827-4.51903,8.49133-7.80318,14.26223-9.05301-.95573-.51045-1.86194-1.16914-2.65289-1.96065-4.36693-4.36648-4.36693-11.43572,0-15.78588,4.34993-4.36648,11.41928-4.36648,15.76876,0,4.36693,4.35016,4.36693,11.4194,0,15.78588-.79038.79152-1.69659,1.4502-2.65278,1.96065,5.77044,1.24983,10.77283,4.53353,14.26155,9.0521-4.24306,6.23873-11.39684,10.34636-19.49378,10.34636-8.09648,0-15.25004-4.10717-19.4931-10.34546ZM21.24806,121.03608c-4.36648-4.36648-4.36648-11.43549,0-15.78588,4.35039-4.36648,11.41928-4.36648,15.76922,0,4.36693,4.35039,4.36693,11.4194,0,15.78588-.7905.79129-1.69659,1.44998-2.65278,1.96043,5.77056,1.24961,10.77295,4.53376,14.26167,9.05233-4.24317,6.23873-11.39696,10.34591-19.49423,10.34591-8.09637,0-15.24981-4.10717-19.49287-10.34523,3.48815-4.51903,8.49099-7.80341,14.26235-9.05301-.95573-.51045-1.86194-1.16914-2.65334-1.96043ZM100.36103,221.75093c-4.24306,6.23805-11.39673,10.34523-19.49321,10.34523s-15.25072-4.1074-19.49367-10.34591c3.48849-4.51835,8.49088-7.80227,14.26178-9.05165-.95619-.51045-1.86228-1.16959-2.65323-1.96111-4.36648-4.36648-4.36648-11.43526,0-15.78565,4.34993-4.36603,11.41883-4.36603,15.76922,0,4.36693,4.35039,4.36693,11.41917,0,15.78565-.79095.79152-1.69716,1.45066-2.65289,1.96111,5.7709,1.24938,10.77351,4.53353,14.26201,9.05233Z"/>
</svg>