<?xml version="1.0" encoding="UTF-8"?>
<svg id="Layer_1" data-name="Layer 1" xmlns="http://www.w3.org/2000/svg" version="1.1" viewBox="0 0 250 229.98721">
  <defs>
    <style>
      .cls-1 {
        fill: #000;
        stroke-width: 0px;
      }
    </style>
  </defs>
  <path id="path-01" class="cls-1" d="M222.48264,50.35272h27.51736v127.53402h-32.5703v52.10046l-59.3409-52.10046h-83.64156l31.34121-27.51706h109.1942c4.14184,0,7.49999-3.35815,7.49999-7.49999V50.35272ZM36.48677,201.23511v-58.36541H0V0h214.98265v142.8697h-112.01952l-66.47636,58.36541ZM125.44815,71.43485c0-9.91729-8.03954-17.95683-17.95683-17.95683s-17.95667,8.03954-17.95667,17.95683,8.03939,17.95652,17.95667,17.95652,17.95683-8.03954,17.95683-17.95652ZM181.76308,71.43485c0-9.91729-8.03939-17.95683-17.95667-17.95683s-17.95667,8.03954-17.95667,17.95683,8.03939,17.95652,17.95667,17.95652,17.95667-8.03954,17.95667-17.95652ZM51.17624,89.39137c9.91729,0,17.95683-8.03954,17.95683-17.95652s-8.03954-17.95683-17.95683-17.95683-17.95667,8.03954-17.95667,17.95683,8.03939,17.95652,17.95667,17.95652Z"/>
</svg>