<svg xmlns="http://www.w3.org/2000/svg" viewBox="0 0 205 250">
  <path fill="#fff" d="M205 166.8c0 47.4-39.8 85.7-87.8 83.1-43.3-2.3-77.9-38.2-78.7-81.5-.4-23.6 9-45 24.5-60.5L37.7 72.5l-13.6-2.5c-2.1-.4-3.9-1.6-5.2-3.3L.3 40.1c-.7-1 .2-2.4 1.4-2.1l2.8.5 18.1 3.4.4-2.8 2.9-18.2c.2-1.2 1.8-1.6 2.5-.6l.8 1.2 17.9 25.3c1.2 1.7 1.7 3.9 1.4 6l-2.1 13.5 59.7 83.7c1.7-1.6 3.7-3 5.9-4l-5.9-13.9c-1.9.9-3.7 1.8-5.4 3l-8.7-12.3c2.6-1.8 5.3-3.3 8.2-4.6l-5.9-13.9c-3.9 1.7-7.6 3.8-11.1 6.2l-8.7-12.3c4.4-3 9-5.6 14-7.8L73.3 54.9 60.6 49.5c-2-.8-3.5-2.4-4.3-4.4l-12.5-30c-.5-1.1.7-2.3 1.8-1.8l2.6 1.1 17 7.2 2-5.1 6.3-16c.2-.6 1.1-.6 1.4 0l13.1 31.4c.8 2 .8 4.2.1 6.1L83 50.7l39.4 93.1c13.3.4 23.7 12.1 22.1 25.8-1.2 10.5-9.7 18.9-20.2 20.1-13.9 1.6-25.7-9.3-25.7-22.9 0-2.5.4-4.9 1.2-7.2l-9.9-13.8c-4.6 6.9-7 15.3-6.2 24.3 1.6 18.5 16.7 33.4 35.2 34.7 22.2 1.6 40.8-16.1 40.8-38c0-21-17.1-38.1-38.1-38.1-.3 0-.7 0-1 .1l-6.2-14.6c2.3-.3 4.7-.5 7.2-.5 30.6 0 55.3 26.1 53 57.2-1.9 26-22.9 46.9-48.9 48.9-31.1 2.3-57.2-22.3-57.2-53 0-12.9 4.6-24.7 12.2-33.9l-9-12.6c-12.1 12.9-19.2 30.6-18.2 49.8 1.7 35.7 31.3 64.2 67 64.8 38.1.6 69.3-30.2 69.3-68.2 0-37.6-30.6-68.2-68.2-68.2-4.5 0-8.9.5-13.2 1.3l-6-14.1c6.2-1.5 12.6-2.2 19.2-2.2 45.1 0 82.4 37.3 82.4 82.4z"/>
</svg>